# xmcd CD database file
#
# Track frame offsets:
#	165
#	31636
#	46069
#	71148
#	102100
#	126013
#	167538
#	199818
#	247049
#	268225
#
# Disc length: 3946 seconds
#
# Revision: 0
# Processed by: cddbd v1.5.1PL0 Copyright (c) Steve Scherf et al.
# Submitted via: CDex 1.51
#
DISCID=850f680a
DTITLE=Various Artist - Jazz from Bloomington
DYEAR=1997
DGENRE=Jazz
TTITLE0=Dominic Spera Band - North Clear Water Stomp
TTITLE1=Jazz Fables - Stress Test
TTITLE2=Janiece Jaffe and Monika Herzig - Sherrie's Song
TTITLE3=Jazz Dadds - Easy Grin
TTITLE4=Marcos Cavalcante - Cayami's Treehouse
TTITLE5=Beeblebox - Blowthing
TTITLE6=Gyrogenics - System Extensions
TTITLE7=David Baker's 21st Century Bebop Band - Groovin' for Diz
TTITLE8=Freesome - New Way
TTITLE9=Ut Haus - Bobby's Blues
EXTD=YEAR: 1997
EXTT0=
EXTT1=
EXTT2=
EXTT3=
EXTT4=
EXTT5=
EXTT6=
EXTT7=
EXTT8=
EXTT9=
PLAYORDER=
